<svg xmlns="http://www.w3.org/2000/svg" xmlns:xlink="http://www.w3.org/1999/xlink" viewBox="0 0 113 32" fill="#fff" fill-rule="evenodd" stroke="#000" stroke-linecap="round" stroke-linejoin="round"><use xlink:href="#A" x=".5" y=".5"/><symbol id="A" overflow="visible"><g stroke="none" fill-rule="nonzero"><path d="M0 18.114v4.98l14.94 7.816 14.94-7.816v-4.98l-5.27-2.7 5.27-2.763v-4.98l-.036.036L14.94 0 .036 7.67H0v4.98l5.27 2.763-5.27 2.7" fill="#db1905"/><path d="M24.61 15.424l-9.67 5.053-9.67-5.053-5.27 2.7 14.94 7.816 14.94-7.816zM14.942.01l14.94 7.707-14.94 7.816L.002 7.717z" fill="#ff5224"/><path d="M40.413 14.758h.06l-.06-.6V9.945h-1.257v-1.08h2.572v11.96h1.212v1.08h-2.203l-.192-1.227h-.074s-.798 1.345-2.78 1.345c-2.158 0-3.784-1.45-3.784-4.213 0-2.7 1.744-4.198 3.8-4.198 2.084.015 2.705 1.138 2.705 1.138zm0 4.82V15.91c-.222-.355-.93-1.168-2.454-1.168-1.316 0-2.75.96-2.75 3.1 0 2.114 1.3 3.12 2.764 3.12 1-.015 1.98-.473 2.44-1.375zm9.21.975s-.724 1.493-3.12 1.493c-1.685 0-2.823-1-2.823-2.365 0-1.523 1.434-2.306 3.725-2.306h2.07v-.68c0-1.404-.798-1.996-2.3-1.996-1.42 0-2.13.68-2.13 1.597v.177h-1.212v-.4c0-1.183 1.05-2.424 3.37-2.424 2.203 0 3.563.976 3.563 3.12v4.095h.976v1.08h-1.966l-.163-1.36zm-.148-2.232h-1.98c-1.434 0-2.513.414-2.513 1.36 0 .798.754 1.33 1.803 1.33 1.892 0 2.7-1.42 2.7-1.42zm5.026-6.756v2.188h2.587v1.05H54.5v4.405c0 1.153.503 1.715 1.36 1.715.917 0 1.463-.266 1.463-.266v1.1s-.665.28-1.685.28c-1.567 0-2.47-.917-2.47-2.764v-4.48h-1.242v-1.05h1.242l.222-2.188zm9.506 8.988s-.724 1.493-3.12 1.493c-1.685 0-2.823-1-2.823-2.365 0-1.523 1.434-2.306 3.725-2.306h2.07v-.68c0-1.404-.798-1.996-2.3-1.996-1.42 0-2.13.68-2.13 1.597v.177h-1.212v-.4c0-1.183 1.05-2.424 3.37-2.424 2.203 0 3.563.976 3.563 3.12v4.095h.976v1.08H64.17l-.163-1.36zm-.133-2.232h-1.98c-1.434 0-2.513.414-2.513 1.36 0 .798.754 1.33 1.803 1.33 1.892 0 2.7-1.42 2.7-1.42zm4.7 2.38l-.207 1.227h-1V9.953h-1.212v-1.08h2.513v5.287c0 .074-.06.6-.06.6h.06s.74-1.123 2.735-1.123c2.025 0 3.784 1.508 3.784 4.198 0 2.764-1.626 4.213-3.755 4.213-1.98 0-2.794-1.345-2.794-1.345h-.074zm.103-4.8v3.666c.443.887 1.45 1.36 2.454 1.36 1.45 0 2.75-1 2.75-3.12s-1.42-3.1-2.735-3.1c-1.508 0-2.217.813-2.47 1.183zm12.906-.935c-.192-.074-.503-.118-.93-.118-2.025 0-2.454 2.4-2.454 2.4v3.592h1.33v1.08h-3.843v-1.08h1.212v-6.002h-1.212v-1.094h2.203l.118 2.084h.06s.4-2.203 2.63-2.203c.37 0 .68.06.887.1zm3.7 5.868h1.168v1.08h-3.696v-1.08h1.212v-5.987h-1.212v-1.094h2.513v7.08zm-.724-8.56c-.562 0-1.02-.458-1.02-1.05a1.02 1.02 0 0 1 1.02-1.02c.577 0 1.05.458 1.05 1.02a1.04 1.04 0 0 1-1.05 1.05zm3.592 5.56c0 2.13 1.375 3.12 2.942 3.12 1.907 0 2.676-.887 2.676-.887l.458.93s-.917 1.05-3.223 1.05c-2.424 0-4.14-1.508-4.14-4.213 0-2.838 1.552-4.198 4.065-4.198 2.557 0 3.474 1.404 3.474 2.927v.443H93.2v-.266c0-1.227-.695-1.996-2.3-1.996-1.64-.015-2.75.813-2.75 3.1zm9.284-.666h2.025l1.966-2.365h-1.02v-1.05h3.696v1.05h-1.257l-2.38 2.883 2.498 3.178h1.242v1.05h-1.98l-2.868-3.725h-1.922v2.646h1.168v1.08h-3.7v-1.08h1.227V9.955h-1.24v-1.08h2.543zm8.574 2.1v.192c0 .843.695 1.508 2.188 1.508 1.508 0 2.173-.488 2.173-1.3 0-.843-1.08-1.123-2.262-1.33-1.463-.266-3.12-.65-3.12-2.4 0-1.404 1.33-2.3 3.15-2.3 2.4 0 3.3 1 3.3 2.232v.6h-1.198v-.384c0-.872-.577-1.375-2.025-1.375-.946 0-1.907.384-1.907 1.242 0 .96 1.153 1.138 2.35 1.36 1.537.296 3.03.77 3.03 2.38 0 1.316-.976 2.365-3.43 2.365-2.513 0-3.444-1.123-3.444-2.277v-.503z" fill="#444"/></g></symbol></svg>